<svg width="180" height="10" viewBox="0 0 180 10" fill="none" xmlns="http://www.w3.org/2000/svg">
<path d="M44.0522 0.0292562C45.0879 0.132956 46.0432 0.451931 46.8638 1.1094C47.6286 1.72215 48.1308 2.51221 48.3946 3.45454C48.5036 3.84392 48.5735 4.2398 48.5837 4.64521C48.5879 4.81145 48.6076 4.97795 48.6017 5.14368C48.5652 6.17279 48.3148 7.13698 47.7103 7.98786C47.2092 8.69316 46.5523 9.2061 45.7578 9.54429C45.1823 9.78924 44.5826 9.93605 43.9576 9.96866C43.6558 9.98441 43.352 10.003 43.0509 9.98704C41.9056 9.9265 40.8483 9.60432 39.9431 8.87349C39.08 8.17657 38.5655 7.2677 38.3338 6.1886C38.2163 5.64108 38.1844 5.08795 38.2263 4.53318C38.3096 3.4311 38.6742 2.43679 39.4204 1.60416C39.7704 1.21366 40.1812 0.89683 40.6457 0.649479C41.2497 0.32791 41.8923 0.135785 42.5701 0.0558423C42.6298 0.0487933 42.6896 0.0419158 42.7747 0.0335689C42.8628 0.0215341 42.9255 0.010889 42.9881 0.000244141C43.2622 0.000244247 43.5363 0.000244248 43.8315 0.0104329C43.9192 0.0234998 43.9857 0.026378 44.0522 0.0292562ZM44.7113 8.96886C44.8635 8.89013 45.0231 8.82296 45.1665 8.73068C45.8159 8.31301 46.2384 7.71495 46.5091 7.00245C46.7519 6.36327 46.8445 5.69647 46.8502 5.01658C46.8539 4.57718 46.8142 4.14062 46.7211 3.71041C46.5951 3.1277 46.3862 2.57966 46.0355 2.09159C45.6498 1.5549 45.1507 1.16756 44.5234 0.955454C43.9271 0.753866 43.3162 0.728044 42.7013 0.848172C41.8219 1.01999 41.1471 1.5008 40.6635 2.24797C40.196 2.97035 40.0086 3.78167 39.9592 4.62781C39.9416 4.92873 39.961 5.23266 39.9771 5.53449C40.007 6.09279 40.1319 6.63145 40.3493 7.14671C40.5683 7.66569 40.8746 8.12566 41.311 8.48784C41.9616 9.02786 42.7161 9.24676 43.5565 9.21371C43.9501 9.19824 44.3258 9.12209 44.7113 8.96886Z" fill="#808080"/>
<path d="M4.22364 0.0290015C4.8329 0.0783933 5.41953 0.213034 5.9557 0.51685C6.73633 0.959193 7.2132 1.63431 7.44184 2.49339C7.47133 2.6042 7.49272 2.71717 7.5207 2.84177C6.94207 2.84177 6.38276 2.84177 5.81616 2.84177C5.81499 2.82389 5.8076 2.80307 5.81346 2.78713C6.06654 2.09819 5.69056 1.36434 5.0851 1.04921C4.71943 0.858892 4.32971 0.773306 3.92266 0.755538C3.60369 0.741615 3.28704 0.765293 2.97827 0.852429C2.60304 0.958321 2.27536 1.13712 2.07039 1.48552C1.92022 1.74078 1.87992 2.01754 1.90324 2.31321C1.92815 2.62907 2.03299 2.90712 2.25224 3.13021C2.38522 3.26551 2.54069 3.38326 2.70039 3.48681C3.05739 3.71828 3.45202 3.87616 3.84359 4.03846C4.45834 4.29325 5.07671 4.53976 5.68652 4.80587C6.12204 4.99592 6.53567 5.22747 6.89509 5.54717C7.23795 5.85214 7.47044 6.22074 7.57111 6.66852C7.69317 7.21143 7.67581 7.74708 7.4743 8.27151C7.29013 8.75083 6.96864 9.11484 6.54305 9.39371C6.07792 9.69849 5.56038 9.85578 5.0163 9.93718C4.61615 9.99706 4.21315 10.0135 3.80963 9.98924C3.09856 9.94654 2.41382 9.80317 1.78133 9.4555C0.985043 9.01779 0.462347 8.35904 0.189362 7.49898C0.130179 7.31252 0.0990888 7.11714 0.0516972 6.90317C0.0322236 6.84525 0.0161118 6.81003 0 6.77481C-3.02913e-08 6.74241 -2.71621e-08 6.71 0.0140846 6.66768C0.622482 6.65777 1.21679 6.65777 1.82838 6.65777C1.79022 6.78145 1.74892 6.87918 1.73069 6.98104C1.66983 7.32109 1.70908 7.65523 1.8293 7.97655C2.03474 8.52568 2.44501 8.8629 2.98553 9.05286C3.52424 9.24218 4.08043 9.27429 4.64146 9.1969C4.95264 9.15397 5.24384 9.04764 5.51222 8.87241C6.23972 8.39741 6.33914 7.22107 5.60564 6.63943C5.3173 6.41079 4.99894 6.24054 4.66251 6.10133C4.04308 5.845 3.41934 5.59904 2.80062 5.34102C2.35289 5.1543 1.91987 4.9373 1.51906 4.66083C1.22598 4.45868 0.959234 4.22755 0.763655 3.92727C0.331536 3.26382 0.284277 2.54526 0.509564 1.80746C0.717611 1.12612 1.20647 0.687726 1.83634 0.394219C2.31238 0.172391 2.82009 0.0733465 3.35363 0.0280511C3.42602 0.0300897 3.48485 0.0343299 3.54289 0.0293292C3.59783 0.0245953 3.65193 0.0101655 3.7064 0C3.7486 0 3.79079 0 3.85111 0.0119388C3.98737 0.0255855 4.1055 0.0272935 4.22364 0.0290015Z" fill="#808080"/>
<path d="M34.2434 4.22167C34.2862 4.59788 34.2892 4.96204 34.2614 5.32438C34.2172 5.90058 34.0872 6.45752 33.8483 6.98749C33.6384 7.45303 33.3556 7.86892 32.9994 8.23163C32.6615 8.57576 32.2735 8.8569 31.8439 9.07892C31.2149 9.40403 30.5474 9.60213 29.8467 9.69851C29.4716 9.75012 29.0961 9.77923 28.7174 9.77861C27.4875 9.77658 26.2576 9.77785 25.0277 9.77785C24.9737 9.77785 24.9198 9.77785 24.8434 9.77785C24.8673 9.73349 24.8739 9.70209 24.8932 9.68846C25.1855 9.4811 25.3195 9.18486 25.3621 8.84193C25.3851 8.65731 25.401 8.47046 25.4012 8.28459C25.4038 6.05761 25.4032 3.83063 25.4024 1.60365C25.4024 1.36629 25.3804 1.13083 25.3199 0.900144C25.2579 0.663782 25.1445 0.46099 24.944 0.313143C24.8922 0.274989 24.8939 0.272757 24.8565 0.187314C24.8931 0.183744 24.9257 0.17778 24.9583 0.177768C26.2438 0.177296 27.5295 0.171465 28.815 0.179545C29.604 0.184504 30.3827 0.283141 31.1384 0.521124C31.9271 0.769463 32.6313 1.1605 33.1959 1.77588C33.6853 2.30925 33.9888 2.94011 34.1464 3.64262C34.1882 3.82887 34.2114 4.0193 34.2434 4.22167ZM32.5339 5.3265C32.5367 5.12428 32.5408 4.92207 32.542 4.71983C32.5452 4.19599 32.4627 3.68506 32.2916 3.1906C32.0289 2.43157 31.5619 1.83771 30.8553 1.44055C30.2102 1.07802 29.5057 0.945971 28.7794 0.92052C28.2486 0.901922 27.7167 0.916693 27.1853 0.917268C27.1467 0.91731 27.1082 0.922887 27.0732 0.925613C27.0732 3.6376 27.0732 6.33785 27.0732 9.03979C27.0965 9.04357 27.1109 9.04809 27.1253 9.04794C27.7064 9.0416 28.2875 9.03534 28.8687 9.02794C29.2186 9.02349 29.5603 8.96029 29.8954 8.86585C30.5726 8.67502 31.1589 8.32974 31.616 7.79062C32.2099 7.0902 32.4633 6.2562 32.5339 5.3265Z" fill="#808080"/>
<path d="M22.7194 2.36988C22.7194 2.09649 22.73 1.83772 22.7162 1.58026C22.7041 1.35512 22.6731 1.12994 22.6346 0.907536C22.5914 0.658241 22.4503 0.463451 22.2547 0.305829C22.2196 0.277498 22.1544 0.263456 22.1835 0.185074C22.8567 0.185074 23.5324 0.185074 24.2308 0.185074C24.2077 0.223766 24.1983 0.258652 24.1755 0.274852C23.8679 0.493768 23.7361 0.806795 23.702 1.16795C23.6806 1.3936 23.6636 1.62066 23.663 1.84713C23.6596 3.26974 23.6715 4.69248 23.6569 6.11495C23.6497 6.81321 23.5405 7.5005 23.2644 8.15058C22.8807 9.05443 22.2088 9.62236 21.2569 9.85934C20.7939 9.97462 20.3236 10.0072 19.8471 9.99299C19.4625 9.9815 19.0837 9.9399 18.7113 9.84392C17.8371 9.6186 17.1766 9.11998 16.7676 8.30779C16.569 7.9132 16.4494 7.49213 16.3773 7.05661C16.3038 6.61248 16.2773 6.16566 16.278 5.71593C16.2801 4.35912 16.2825 3.00229 16.2752 1.64551C16.274 1.41075 16.2365 1.1745 16.1974 0.942041C16.152 0.672689 16.01 0.455001 15.7899 0.290224C15.7601 0.267932 15.7334 0.241589 15.6987 0.211499C15.8163 0.16941 18.1133 0.153443 18.4828 0.188158C18.4665 0.221321 18.4604 0.259104 18.4386 0.274323C18.1067 0.505786 17.9901 0.845802 17.9581 1.22649C17.9425 1.41216 17.9311 1.59882 17.9308 1.78505C17.9286 3.23805 17.9218 4.69111 17.9336 6.14402C17.938 6.69352 18.0049 7.23986 18.1956 7.7625C18.3388 8.15507 18.5532 8.49654 18.9 8.74343C19.1656 8.93249 19.4675 9.03005 19.7842 9.07611C20.1859 9.13454 20.5872 9.12072 20.9853 9.02891C21.6618 8.87292 22.1204 8.46401 22.3929 7.8338C22.5402 7.49295 22.6187 7.1343 22.6675 6.76826C22.7136 6.42253 22.7212 6.07494 22.7204 5.72643C22.7177 4.61265 22.7194 3.49886 22.7194 2.36988Z" fill="#808080"/>
<path d="M10.6077 8.81172C10.6249 8.61815 10.656 8.43798 10.6562 8.25776C10.6595 5.84266 10.6584 3.42755 10.6584 1.01245C10.6584 0.972943 10.6584 0.933439 10.6584 0.888373C10.5081 0.888373 10.3675 0.876671 10.2294 0.890353C9.54958 0.957697 8.89333 1.13679 8.23884 1.32252C8.04048 1.37881 7.84257 1.43669 7.63135 1.49762C7.63135 1.0555 7.63135 0.624717 7.63135 0.185547C10.1981 0.185547 12.7666 0.185547 15.3411 0.185547C15.3411 0.619402 15.3411 1.04789 15.3411 1.48905C15.3054 1.48313 15.273 1.48047 15.2421 1.47224C14.6772 1.32186 14.1137 1.16638 13.5474 1.02154C13.2003 0.932734 12.8446 0.892161 12.4865 0.876624C12.4321 0.874261 12.3775 0.876294 12.3091 0.876294C12.3091 0.938846 12.3091 0.9881 12.3091 1.03735C12.3091 3.48284 12.3078 5.92832 12.3112 8.3738C12.3116 8.62008 12.3433 8.86508 12.4195 9.1032C12.495 9.3392 12.6361 9.52132 12.8351 9.66386C12.8677 9.68726 12.9279 9.69546 12.9052 9.76913C11.9591 9.76913 11.0111 9.76913 10.0472 9.76913C10.0632 9.73682 10.0685 9.70336 10.0874 9.69141C10.4067 9.48958 10.5516 9.18438 10.6077 8.81172Z" fill="#808080"/>
<path d="M37.2109 6.86611C37.2109 7.39267 37.2086 7.90405 37.2119 8.41539C37.2136 8.67321 37.243 8.92769 37.3303 9.17338C37.398 9.36398 37.5029 9.52564 37.666 9.64795C37.7037 9.67622 37.7569 9.69601 37.7505 9.76871C36.8346 9.76871 35.9211 9.76871 34.9853 9.76871C35.0073 9.73503 35.018 9.70284 35.0403 9.68684C35.332 9.4776 35.4651 9.17947 35.5074 8.83656C35.5326 8.63183 35.5479 8.42449 35.5482 8.2183C35.551 6.0412 35.5517 3.86409 35.5472 1.68699C35.5468 1.46152 35.5176 1.23494 35.4865 1.01101C35.446 0.719727 35.312 0.476862 35.0708 0.298963C35.0384 0.275054 35.0133 0.2412 34.9606 0.187012C35.9169 0.187012 36.8334 0.187012 37.7828 0.187012C37.743 0.234776 37.7246 0.268562 37.6964 0.288716C37.4032 0.498739 37.2781 0.799101 37.2433 1.14341C37.2235 1.33876 37.2125 1.53586 37.2123 1.73219C37.2099 3.43843 37.2109 5.14468 37.2109 6.86611Z" fill="#808080"/>
<path d="M52.3545 0.646557C52.295 0.557712 52.2459 0.473953 52.1826 0.402828C52.1218 0.334587 52.0464 0.279448 51.9774 0.218551C51.9824 0.209413 51.9875 0.200274 51.9925 0.191136C52.829 0.191136 53.6655 0.191136 54.5151 0.191136C55.4736 2.22892 56.4357 4.27441 57.4112 6.34833C58.3972 4.27944 59.3719 2.23404 60.3475 0.186768C61.1452 0.186768 61.9376 0.186768 62.7492 0.186768C62.7258 0.222926 62.7163 0.252851 62.6958 0.266945C62.3764 0.486969 62.2626 0.815846 62.2274 1.17765C62.2025 1.43327 62.1954 1.69144 62.1951 1.94848C62.1926 4.03437 62.1918 6.12027 62.1964 8.20615C62.1969 8.4418 62.2255 8.67851 62.2565 8.9127C62.2971 9.21989 62.4348 9.47736 62.6889 9.66571C62.7168 9.68641 62.7358 9.71921 62.779 9.77005C61.827 9.77005 60.911 9.77005 59.9687 9.77005C59.9978 9.72828 60.0098 9.69481 60.0336 9.67946C60.3878 9.45036 60.5254 9.10235 60.5608 8.70429C60.5822 8.46344 60.5919 8.22079 60.5922 7.97893C60.5945 5.92342 60.5935 3.8679 60.5935 1.81238C60.5935 1.75687 60.5935 1.70135 60.5935 1.64584C60.0164 2.77546 59.4712 3.91768 58.9227 5.05826C58.3714 6.2046 57.822 7.35186 57.2713 8.49976C57.1131 8.49976 56.9619 8.49976 56.7922 8.49976C55.6919 6.21655 54.5873 3.92458 53.4828 1.63261C53.4733 1.6349 53.4638 1.63719 53.4543 1.63948C53.4543 1.67751 53.4543 1.71554 53.4543 1.75356C53.4543 3.93059 53.4518 6.10762 53.4576 8.28463C53.4584 8.54965 53.4803 8.81663 53.5639 9.07501C53.6415 9.31498 53.7766 9.50677 53.9791 9.65422C54.0164 9.68138 54.0785 9.69562 54.0496 9.77307C53.3563 9.77307 52.6613 9.77307 51.9447 9.77307C51.965 9.7316 51.9711 9.69245 51.9934 9.6773C52.4094 9.39542 52.506 8.96564 52.5094 8.50998C52.5232 6.64779 52.526 4.78552 52.5324 2.92327C52.5336 2.579 52.5347 2.23471 52.5319 1.89046C52.5294 1.57812 52.5234 1.26525 52.4556 0.95859C52.4329 0.855991 52.3916 0.757524 52.3545 0.646557Z" fill="#808080"/>
<path d="M105.473 0.683143C105.555 0.513809 105.631 0.354283 105.71 0.187744C106.501 0.187744 107.294 0.187744 108.102 0.187744C108.087 0.218297 108.081 0.250362 108.062 0.263808C107.759 0.479674 107.629 0.789239 107.594 1.14391C107.57 1.39455 107.554 1.64713 107.553 1.89887C107.55 3.94419 107.55 5.98952 107.553 8.03484C107.554 8.33178 107.559 8.62952 107.616 8.92353C107.673 9.22166 107.796 9.47867 108.048 9.66232C108.092 9.69434 108.09 9.69692 108.096 9.77312C107.182 9.77312 106.268 9.77312 105.327 9.77312C105.357 9.73079 105.369 9.69787 105.393 9.68272C105.731 9.46524 105.875 9.13611 105.917 8.75471C105.94 8.54965 105.95 8.34216 105.95 8.13575C105.952 6.02967 105.951 3.92359 105.951 1.81751C105.951 1.76473 105.951 1.71194 105.951 1.65915C105.941 1.65712 105.931 1.65508 105.92 1.65304C104.825 3.93447 103.73 6.2159 102.633 8.49949C102.473 8.49949 102.318 8.49949 102.154 8.49949C101.051 6.21005 99.9476 3.9207 98.8443 1.63135C98.8336 1.63367 98.8229 1.63599 98.8122 1.63831C98.8122 1.68121 98.8122 1.7241 98.8122 1.767C98.8122 3.90852 98.8094 6.05004 98.8159 8.19154C98.8167 8.45151 98.8554 8.71336 98.8985 8.97067C98.9463 9.25661 99.1055 9.4821 99.3402 9.65305C99.3785 9.68095 99.4389 9.69566 99.4072 9.77288C98.7145 9.77288 98.0195 9.77288 97.3009 9.77288C97.3235 9.73196 97.3314 9.69498 97.3539 9.68005C97.7464 9.41982 97.8506 9.01931 97.8672 8.58861C97.887 8.07361 97.8889 7.55772 97.8896 7.04221C97.892 5.23989 97.8924 3.43757 97.8883 1.63526C97.8877 1.38935 97.8681 1.14243 97.8073 0.901387C97.7447 0.653426 97.6245 0.443564 97.4152 0.28989C97.3913 0.272389 97.3705 0.250352 97.3506 0.228341C97.346 0.223324 97.351 0.209686 97.3522 0.189926C98.1885 0.189926 99.0256 0.189926 99.8767 0.189926C100.835 2.2265 101.796 4.27166 102.766 6.33399C102.795 6.28637 102.818 6.2527 102.836 6.21603C103.129 5.60098 103.422 4.98553 103.714 4.3702C103.925 3.92803 104.135 3.48582 104.346 3.04381C104.704 2.292 105.062 1.54034 105.421 0.788619C105.436 0.75669 105.452 0.724839 105.473 0.683143Z" fill="#808080"/>
<path d="M76.1648 5.72314C75.6094 5.50366 75.0652 5.28797 74.5452 5.01702C74.1313 4.80132 73.7395 4.55431 73.4161 4.211C73.0871 3.86189 72.8859 3.45231 72.8273 2.97547C72.7807 2.59644 72.7956 2.22081 72.9063 1.85257C73.0777 1.28275 73.4379 0.860577 73.9391 0.555631C74.3807 0.28703 74.8661 0.140892 75.3755 0.0654386C75.7212 0.0142256 76.0686 -0.00560023 76.4168 0.00914028C77.1464 0.0400259 77.849 0.182272 78.4799 0.571766C79.2235 1.03087 79.6667 1.70747 79.8766 2.54637C79.8985 2.63392 79.9162 2.72253 79.9385 2.82249C79.3624 2.82249 78.7936 2.82249 78.2247 2.82261C78.3903 2.33937 78.3182 1.89004 78.0193 1.48008C77.8359 1.22851 77.5832 1.06188 77.2969 0.946291C77.0047 0.828268 76.7006 0.774418 76.3851 0.752967C76.0384 0.729397 75.7013 0.763863 75.3698 0.853632C75.0777 0.932753 74.8134 1.07228 74.6119 1.30443C74.3293 1.62983 74.2745 2.01853 74.3327 2.4286C74.3833 2.78529 74.5677 3.06606 74.8482 3.29009C75.1394 3.52267 75.466 3.69176 75.8065 3.83468C76.4623 4.10989 77.122 4.37559 77.7775 4.6515C78.2435 4.84765 78.6988 5.0656 79.1071 5.3698C79.5329 5.68705 79.8501 6.08192 79.9759 6.60754C80.1233 7.22344 80.1009 7.8308 79.8313 8.41164C79.6115 8.88523 79.2506 9.23146 78.7985 9.48654C78.3432 9.74343 77.8499 9.87694 77.335 9.94228C77.0243 9.98172 76.7123 10.0046 76.3994 9.99197C75.6729 9.96253 74.9643 9.84452 74.3096 9.50922C73.3992 9.04301 72.8187 8.30649 72.5578 7.31967C72.5027 7.11136 72.4697 6.89722 72.4236 6.67157C73.0381 6.67157 73.6313 6.67157 74.2309 6.67157C74.2291 6.69896 74.2329 6.72532 74.225 6.74756C73.917 7.61736 74.3584 8.51074 75.0201 8.8719C75.3947 9.07633 75.7965 9.17215 76.2175 9.21513C76.5214 9.24616 76.8213 9.22945 77.1199 9.17949C77.4851 9.1184 77.8227 8.98592 78.0972 8.73109C78.3639 8.48355 78.5025 8.17232 78.5192 7.80527C78.5352 7.45503 78.4699 7.13025 78.2412 6.855C78.0917 6.67496 77.9105 6.53064 77.7092 6.40916C77.3354 6.18358 76.9291 6.03034 76.5276 5.86606C76.4109 5.81833 76.293 5.77369 76.1648 5.72314Z" fill="#808080"/>
<path d="M94.087 8.55897C94.3555 8.31578 94.5271 8.02177 94.6485 7.6963C94.7885 7.32068 94.8689 6.93093 94.8909 6.53163C94.9107 6.17389 94.9209 5.81521 94.9219 5.45691C94.9255 4.21164 94.9232 2.96634 94.9234 1.72106C94.9235 1.47869 94.9075 1.23818 94.8636 0.999056C94.8094 0.702967 94.6726 0.460095 94.4294 0.279158C94.4043 0.260515 94.3857 0.233163 94.3461 0.19043C95.0569 0.19043 95.7398 0.19043 96.4474 0.19043C96.4124 0.229039 96.3947 0.256747 96.3699 0.274678C96.1187 0.456361 95.9743 0.705221 95.9284 1.00678C95.8959 1.22025 95.8688 1.43704 95.868 1.65245C95.8628 3.09514 95.8692 4.53787 95.8633 5.98056C95.861 6.54119 95.7971 7.09682 95.6432 7.63834C95.5067 8.11864 95.3026 8.56451 94.9747 8.94914C94.6086 9.37842 94.1453 9.65098 93.6118 9.81048C93.2875 9.90741 92.9555 9.9662 92.6155 9.97328C92.429 9.97716 92.2421 9.99854 92.0563 9.99073C91.5005 9.96736 90.9541 9.894 90.4342 9.67565C89.7289 9.37941 89.2293 8.8746 88.9148 8.18556C88.6997 7.71419 88.5859 7.21405 88.5317 6.69881C88.4963 6.36217 88.4813 6.02554 88.4819 5.68725C88.484 4.3964 88.4839 3.10556 88.4817 1.81471C88.4813 1.54777 88.4693 1.281 88.422 1.01687C88.3683 0.716715 88.2394 0.463094 87.9871 0.280617C87.962 0.262401 87.944 0.2342 87.9047 0.19067C88.8489 0.19067 89.7648 0.19067 90.7047 0.19067C90.672 0.22904 90.6555 0.258212 90.6309 0.275817C90.3577 0.470585 90.2188 0.74484 90.1825 1.06878C90.1511 1.34864 90.1272 1.63097 90.126 1.91233C90.1202 3.24365 90.116 4.57506 90.1269 5.90631C90.1315 6.46514 90.1732 7.02384 90.3346 7.56522C90.4174 7.84281 90.5328 8.10454 90.7027 8.34112C90.9358 8.66578 91.2491 8.88326 91.629 8.9879C92.2206 9.15087 92.8168 9.14412 93.4044 8.95993C93.6568 8.88082 93.8867 8.75322 94.087 8.55897Z" fill="#808080"/>
<path d="M65.6925 0.179784C65.9338 0.179784 66.16 0.179784 66.4095 0.179784C66.3827 0.223034 66.374 0.253401 66.354 0.266965C66.0278 0.487695 65.9101 0.819807 65.8739 1.18774C65.8497 1.4333 65.8414 1.68125 65.8408 1.92817C65.8378 3.24949 65.8376 4.57082 65.8403 5.89214C65.8413 6.35126 65.8728 6.80876 65.9697 7.25906C66.0454 7.611 66.1561 7.94876 66.3547 8.25531C66.5907 8.61976 66.9166 8.86703 67.3278 8.98367C67.9129 9.14961 68.5047 9.14704 69.0884 8.96658C69.654 8.79167 70.0368 8.41055 70.281 7.87865C70.4577 7.49362 70.5417 7.08629 70.5896 6.66848C70.6287 6.3271 70.6406 5.98506 70.6401 5.64173C70.6382 4.31535 70.6423 2.98895 70.6367 1.66259C70.6356 1.4119 70.6153 1.16045 70.5562 0.913304C70.4961 0.661534 70.3654 0.460078 70.1663 0.299031C70.1356 0.274142 70.1071 0.246381 70.0781 0.219329C70.0758 0.217097 70.0778 0.210088 70.0778 0.205443C70.1804 0.173994 71.8982 0.162939 72.1417 0.194004C72.1237 0.221183 72.1142 0.249711 72.0944 0.263477C71.7737 0.48662 71.6424 0.810136 71.6133 1.18321C71.5949 1.41935 71.5831 1.65663 71.5826 1.89343C71.5798 3.25018 71.5911 4.60705 71.5772 5.96367C71.57 6.67607 71.4822 7.38145 71.2159 8.052C70.9966 8.60413 70.6674 9.07387 70.1714 9.4132C69.7904 9.67383 69.3654 9.82627 68.9133 9.9079C68.5298 9.97712 68.1427 10.0079 67.7541 9.99102C67.1207 9.96351 66.5009 9.87054 65.9273 9.57346C65.4577 9.33024 65.0865 8.98485 64.8119 8.53363C64.5404 8.08743 64.3882 7.59918 64.2975 7.08866C64.2186 6.6451 64.1958 6.19818 64.1972 5.74807C64.2013 4.44194 64.2039 3.13576 64.1946 1.82969C64.1926 1.54453 64.184 1.25697 64.1232 0.973107C64.0608 0.682427 63.9283 0.445734 63.6852 0.272431C63.6633 0.256789 63.6483 0.231329 63.6046 0.181101C63.9784 0.178606 64.3191 0.180108 64.6597 0.179842C64.9989 0.179577 65.3381 0.179784 65.6925 0.179784Z" fill="#808080"/>
<path d="M86.5284 4.3816C86.5284 4.71949 86.5284 5.04269 86.5284 5.38463C85.3677 5.06883 84.1961 5.11309 83.0289 5.1128C82.9983 5.2276 82.9923 8.87433 83.023 9.05186C83.7669 9.0399 84.5149 9.09209 85.2578 8.98581C85.9928 8.88066 86.7032 8.67278 87.4136 8.42598C87.4136 8.88289 87.4136 9.32195 87.4136 9.77069C85.2123 9.77069 83.0123 9.77069 80.8105 9.77069C80.7808 9.7276 80.8057 9.69576 80.841 9.672C81.1581 9.45843 81.272 9.13604 81.3107 8.77869C81.3319 8.5836 81.3417 8.38635 81.3419 8.19007C81.344 5.98272 81.3446 3.77537 81.3408 1.56803C81.3405 1.37774 81.315 1.18609 81.2854 0.997562C81.238 0.696212 81.0986 0.445672 80.8402 0.270341C80.8211 0.257399 80.808 0.235649 80.795 0.221245C80.8004 0.207457 80.8017 0.20244 80.8042 0.198103C80.8064 0.194182 80.81 0.187933 80.813 0.187932C82.9281 0.187495 85.0433 0.1875 87.1675 0.1875C87.1675 0.610132 87.1675 1.03294 87.1675 1.46783C87.1317 1.46131 87.0943 1.45777 87.0588 1.44754C86.5068 1.28827 85.954 1.13189 85.3885 1.02646C85.0567 0.964592 84.7242 0.910044 84.3847 0.908194C83.9501 0.905824 83.5156 0.895719 83.0811 0.889275C83.0617 0.888986 83.0423 0.891935 83.0138 0.894048C83.0138 2.06526 83.0138 3.23142 83.0138 4.41084C84.1884 4.41142 85.3642 4.46221 86.5284 4.15563C86.5284 4.23689 86.5284 4.30191 86.5284 4.3816Z" fill="#808080"/>
<path d="M114.954 9.79862C114.957 9.76885 114.967 9.73059 114.992 9.71062C115.272 9.48704 115.386 9.18028 115.422 8.83968C115.445 8.61946 115.459 8.39712 115.46 8.17571C115.462 5.96324 115.461 3.75076 115.461 1.53829C115.461 1.30059 115.438 1.06587 115.373 0.835761C115.316 0.631417 115.217 0.454587 115.054 0.315704C115.03 0.295602 115.017 0.262288 114.988 0.217042C115.042 0.210823 115.074 0.203853 115.106 0.203814C115.673 0.203148 116.24 0.205015 116.807 0.201424C116.888 0.200912 116.933 0.226097 116.977 0.29486C117.539 1.18246 118.105 2.06751 118.67 2.95382C119.522 4.29174 120.373 5.63021 121.225 6.96826C121.411 7.26033 121.598 7.55163 121.811 7.83954C121.811 7.79689 121.811 7.75424 121.811 7.71158C121.811 5.70669 121.811 3.70179 121.81 1.69689C121.81 1.43938 121.784 1.18321 121.714 0.934331C121.642 0.684053 121.509 0.473973 121.294 0.321324C121.259 0.29613 121.208 0.279479 121.236 0.210906C121.908 0.210906 122.583 0.210906 123.272 0.210906C123.26 0.245309 123.258 0.279679 123.24 0.294196C122.863 0.602889 122.78 1.03337 122.776 1.48021C122.762 3.28671 122.758 5.0933 122.753 6.89987C122.75 7.85673 122.752 8.81361 122.75 9.78455C122.241 9.79862 121.734 9.79862 121.213 9.78783C119.611 7.27059 118.022 4.76412 116.434 2.25766C116.424 2.26052 116.413 2.26338 116.403 2.26624C116.403 2.3193 116.403 2.37236 116.403 2.42542C116.403 4.26842 116.401 6.11142 116.405 7.9544C116.406 8.22077 116.431 8.4876 116.455 8.75326C116.491 9.14868 116.643 9.48372 116.985 9.7132C117.01 9.72996 117.019 9.76961 117.036 9.79862C116.347 9.79862 115.657 9.79862 114.954 9.79862Z" fill="#808080"/>
<path d="M111.46 9.7988C111.457 9.76854 111.459 9.72537 111.48 9.70994C111.845 9.44797 111.943 9.06204 111.965 8.64772C111.984 8.29479 111.987 7.94077 111.987 7.58722C111.989 5.60752 111.99 3.62781 111.984 1.64813C111.984 1.41855 111.943 1.18768 111.905 0.959999C111.862 0.700569 111.725 0.492127 111.515 0.332189C111.479 0.304497 111.417 0.283334 111.456 0.209229C112.358 0.209229 113.263 0.209229 114.187 0.209229C114.175 0.243147 114.171 0.277084 114.153 0.297178C114.119 0.33391 114.075 0.361449 114.037 0.394574C113.788 0.611968 113.705 0.905604 113.671 1.2174C113.651 1.40252 113.64 1.5896 113.64 1.77582C113.638 3.97324 113.636 6.17066 113.642 8.36806C113.643 8.59765 113.682 8.82901 113.723 9.0561C113.768 9.30792 113.903 9.51379 114.101 9.67824C114.134 9.70548 114.157 9.7438 114.183 9.7879C113.278 9.7988 112.376 9.7988 111.46 9.7988Z" fill="#808080"/>
<path d="M168.342 9.79937C168.35 9.76821 168.366 9.72773 168.396 9.70733C168.694 9.50457 168.828 9.20844 168.875 8.86592C168.897 8.7066 168.908 8.54461 168.908 8.38376C168.917 6.2228 168.927 4.06183 168.926 1.90087C168.925 1.59564 168.919 1.28675 168.85 0.983964C168.79 0.71793 168.671 0.493271 168.45 0.327175C168.416 0.301656 168.365 0.281758 168.396 0.212605C169.225 0.212605 170.058 0.212605 170.902 0.212605C171.865 2.25903 172.831 4.31192 173.805 6.38268C174.794 4.30871 175.771 2.25847 176.747 0.209229C177.54 0.209229 178.323 0.209229 179.103 0.209229C179.133 0.260749 179.108 0.289392 179.073 0.315367C178.76 0.541799 178.651 0.869671 178.622 1.23396C178.606 1.43486 178.592 1.63661 178.592 1.83799C178.59 3.99984 178.589 6.16169 178.593 8.32354C178.594 8.52885 178.623 8.7348 178.649 8.93923C178.691 9.27178 178.849 9.5384 179.133 9.73691C179.143 9.75877 179.143 9.77893 179.143 9.79937C178.231 9.79937 177.319 9.79937 176.395 9.78897C176.408 9.74996 176.43 9.71617 176.46 9.69354C176.689 9.51958 176.841 9.29868 176.908 9.01379C176.972 8.74115 176.989 8.46503 176.989 8.18841C176.992 6.05248 176.991 3.91655 176.99 1.78062C176.99 1.74402 176.987 1.70743 176.985 1.67084C176.977 1.6703 176.968 1.66976 176.96 1.66922C175.86 3.96041 174.76 6.25161 173.659 8.54464C173.504 8.54464 173.353 8.54464 173.189 8.54464C172.641 7.40333 172.094 6.25505 171.539 5.11129C170.983 3.96756 170.438 2.81833 169.851 1.6866C169.851 1.73616 169.851 1.78571 169.851 1.83527C169.851 3.80923 169.851 5.7832 169.852 7.75716C169.853 8.0549 169.855 8.3533 169.874 8.65019C169.902 9.07733 170.02 9.46558 170.411 9.71473C170.434 9.72947 170.44 9.77055 170.454 9.79937C169.755 9.79937 169.055 9.79937 168.342 9.79937Z" fill="#808080"/>
<path d="M126.66 9.79929C126.658 9.76976 126.662 9.72832 126.685 9.7125C127.004 9.48601 127.122 9.15543 127.158 8.78727C127.18 8.56178 127.195 8.33458 127.196 8.10812C127.199 6.03737 127.199 3.96661 127.196 1.89586C127.196 1.61901 127.187 1.34175 127.137 1.06742C127.082 0.763669 126.962 0.500483 126.701 0.317404C126.673 0.297843 126.655 0.263541 126.614 0.213393C127.562 0.213393 128.476 0.213393 129.401 0.213393C129.393 0.239532 129.393 0.275792 129.376 0.286762C128.971 0.553699 128.871 0.968469 128.862 1.40805C128.843 2.39421 128.845 3.38077 128.838 4.36716C128.838 4.38687 128.842 4.4066 128.844 4.43662C130.312 4.43662 131.777 4.43662 133.253 4.43662C133.256 4.40034 133.263 4.36178 133.263 4.32322C133.263 3.44226 133.27 2.56124 133.26 1.68039C133.257 1.39494 133.24 1.10607 133.144 0.830608C133.074 0.629978 132.962 0.460027 132.788 0.333922C132.75 0.306084 132.7 0.284146 132.7 0.213135C133.62 0.213135 134.533 0.213135 135.466 0.213135C135.45 0.246374 135.444 0.284127 135.422 0.29962C135.074 0.548483 134.958 0.909097 134.936 1.31214C134.922 1.55389 134.915 1.79631 134.915 2.03844C134.913 4.16995 134.913 6.30146 134.916 8.43297C134.916 8.68445 134.949 8.93465 135.027 9.17693C135.092 9.37524 135.207 9.53536 135.364 9.66941C135.401 9.70039 135.429 9.7412 135.458 9.78839C134.544 9.79929 133.632 9.79929 132.708 9.78917C132.715 9.75612 132.729 9.72759 132.751 9.71112C132.988 9.53953 133.136 9.30922 133.182 9.02305C133.221 8.78526 133.258 8.54413 133.26 8.30416C133.268 7.31713 133.263 6.32997 133.263 5.34286C133.263 5.29945 133.259 5.25603 133.257 5.21752C131.777 5.21752 130.312 5.21752 128.838 5.21752C128.838 5.27792 128.838 5.32781 128.838 5.3777C128.838 6.30407 128.834 7.23046 128.841 8.15678C128.842 8.40782 128.861 8.66056 128.897 8.90908C128.942 9.22755 129.069 9.50941 129.343 9.70518C129.373 9.7263 129.388 9.76744 129.41 9.79929C128.498 9.79929 127.586 9.79929 126.66 9.79929Z" fill="#808080"/>
<path d="M145.556 9.7994C145.569 9.76516 145.589 9.7231 145.623 9.69794C145.843 9.53219 145.983 9.31332 146.031 9.0453C146.071 8.81827 146.11 8.58699 146.111 8.35748C146.117 6.12051 146.117 3.88351 146.111 1.64654C146.11 1.42208 146.069 1.19658 146.033 0.973634C145.989 0.696317 145.841 0.478287 145.615 0.313045C145.587 0.292557 145.554 0.279107 145.523 0.262396C145.532 0.248537 145.54 0.234678 145.549 0.220821C145.58 0.21527 145.611 0.204886 145.642 0.204865C146.923 0.204046 148.203 0.193792 149.484 0.208782C150.073 0.21568 150.659 0.288884 151.225 0.471923C151.608 0.595958 151.966 0.77135 152.261 1.04941C152.642 1.40818 152.836 1.85889 152.868 2.37893C152.885 2.64991 152.881 2.9206 152.817 3.18673C152.663 3.81994 152.274 4.26666 151.713 4.57621C151.26 4.82542 150.771 4.9551 150.264 5.0315C150.241 5.035 150.218 5.03784 150.17 5.04433C150.269 5.18177 150.354 5.30355 150.442 5.42373C151.229 6.49924 152.016 7.57552 152.805 8.6491C153.027 8.95005 153.254 9.24776 153.547 9.48591C153.644 9.56532 153.752 9.63224 153.853 9.70691C153.88 9.72674 153.901 9.75416 153.926 9.78875C153.197 9.7994 152.468 9.7994 151.721 9.78941C151.509 9.50278 151.315 9.22586 151.12 8.94954C150.288 7.76995 149.453 6.59237 148.626 5.4087C148.524 5.26231 148.425 5.18054 148.238 5.20322C148.085 5.22175 147.929 5.20699 147.775 5.20699C147.77 5.24058 147.765 5.25502 147.765 5.26942C147.772 6.39673 147.771 7.52415 147.789 8.65127C147.796 9.07325 147.92 9.45827 148.298 9.71277C148.32 9.7278 148.325 9.7699 148.337 9.7994C147.415 9.7994 146.493 9.7994 145.556 9.7994ZM148.17 0.923368C148.04 0.923368 147.91 0.923368 147.774 0.923368C147.774 2.12772 147.774 3.31859 147.774 4.51821C147.833 4.51821 147.883 4.51821 147.933 4.51821C148.272 4.51821 148.612 4.52133 148.951 4.51738C149.331 4.51294 149.704 4.45596 150.063 4.32971C150.568 4.1521 150.955 3.84164 151.135 3.31904C151.239 3.0154 151.27 2.70268 151.23 2.38154C151.174 1.93785 150.989 1.57411 150.612 1.31952C150.218 1.0536 149.769 0.964431 149.308 0.937155C148.94 0.915375 148.57 0.926725 148.17 0.923368Z" fill="#808080"/>
<path d="M135.804 9.79944C135.806 9.77183 135.816 9.73447 135.84 9.71805C136.354 9.36662 136.664 8.8694 136.873 8.29598C137.315 7.08293 137.76 5.87112 138.204 4.65884C138.643 3.46077 139.087 2.26469 139.517 1.0635C139.644 0.709815 139.647 0.645166 139.539 0.213867C140.1 0.213867 140.659 0.213867 141.229 0.213867C141.314 0.437058 141.403 0.667297 141.489 0.898507C141.89 1.97063 142.291 3.04309 142.692 4.11531C143.218 5.5229 143.744 6.93061 144.272 8.33773C144.405 8.69277 144.542 9.04801 144.792 9.34075C144.899 9.46613 145.033 9.56896 145.153 9.68298C145.185 9.71274 145.213 9.746 145.24 9.78855C144.245 9.79944 143.252 9.79944 142.235 9.79142C142.249 9.75173 142.285 9.71741 142.325 9.68882C142.541 9.53441 142.663 9.33007 142.649 9.05996C142.643 8.93994 142.637 8.81594 142.603 8.70205C142.5 8.35424 142.383 8.01006 142.27 7.66524C142.185 7.40731 142.096 7.15056 142.01 6.89469C140.784 6.89469 139.57 6.89469 138.359 6.89469C138.342 6.93391 138.327 6.96587 138.315 6.99923C138.188 7.36624 138.06 7.73316 137.934 8.10074C137.836 8.38666 137.727 8.66923 137.688 8.97226C137.651 9.27052 137.728 9.52093 137.981 9.7033C138.015 9.72813 138.04 9.76705 138.069 9.79944C137.319 9.79944 136.569 9.79944 135.804 9.79944ZM140.152 1.71988C139.638 3.20488 139.123 4.68988 138.607 6.17989C139.665 6.17989 140.704 6.17989 141.763 6.17989C141.242 4.66405 140.725 3.1621 140.208 1.6605C140.206 1.65687 140.19 1.65842 140.179 1.65738C140.173 1.67047 140.167 1.6841 140.152 1.71988Z" fill="#808080"/>
<path d="M161.081 9.79951C161.087 9.76687 161.1 9.72441 161.128 9.7031C161.401 9.50042 161.535 9.21994 161.577 8.89255C161.6 8.71302 161.616 8.53116 161.617 8.35033C161.619 6.09275 161.62 3.83516 161.615 1.57759C161.614 1.36291 161.578 1.14647 161.539 0.934205C161.493 0.680015 161.345 0.483472 161.144 0.324542C161.112 0.298633 161.055 0.28584 161.083 0.213379C163.197 0.213379 165.315 0.213379 167.442 0.213379C167.442 0.641435 167.442 1.0689 167.442 1.51078C166.761 1.32291 166.086 1.12884 165.39 1.01203C164.693 0.894819 163.993 0.950052 163.286 0.932036C163.286 2.10951 163.286 3.27112 163.286 4.44608C164.461 4.4443 165.632 4.49881 166.792 4.19211C166.792 4.60712 166.792 5.00355 166.792 5.41128C166.635 5.37663 166.477 5.33763 166.316 5.30716C165.935 5.23459 165.551 5.18279 165.162 5.17668C164.556 5.16716 163.95 5.15664 163.343 5.14681C163.329 5.14657 163.314 5.14943 163.289 5.1518C163.289 6.4546 163.289 7.75705 163.289 9.07941C164.034 9.04773 164.78 9.12318 165.525 9.01721C166.261 8.91237 166.97 8.70529 167.694 8.46078C167.694 8.90656 167.694 9.33897 167.692 9.78544C165.491 9.79951 163.293 9.79951 161.081 9.79951Z" fill="#808080"/>
<path d="M153.972 9.79949C153.941 9.74788 153.979 9.72759 154.012 9.70378C154.303 9.49322 154.426 9.18999 154.467 8.84865C154.492 8.64385 154.507 8.43658 154.508 8.2304C154.51 6.06851 154.51 3.90661 154.508 1.74472C154.508 1.46765 154.492 1.19115 154.42 0.920366C154.354 0.671649 154.227 0.467542 154.016 0.317041C153.988 0.296974 153.968 0.265566 153.921 0.2146C154.876 0.2146 155.792 0.2146 156.734 0.2146C156.704 0.256152 156.691 0.28814 156.667 0.305034C156.364 0.520532 156.235 0.827812 156.201 1.18443C156.186 1.34987 156.172 1.51619 156.172 1.68216C156.163 4.07607 156.157 6.46999 156.15 8.8639C156.15 8.91858 156.15 8.97327 156.15 9.04532C156.902 9.03171 157.643 9.08298 158.381 8.97629C159.117 8.87001 159.827 8.665 160.545 8.42218C160.545 8.88388 160.545 9.32761 160.548 9.78541C158.362 9.79949 156.174 9.79949 153.972 9.79949Z" fill="#808080"/>
</svg>
