<svg width="45" height="12" viewBox="0 0 45 12" fill="none" xmlns="http://www.w3.org/2000/svg">
<path d="M3.85352 9.47266L6.41797 0.658203H8.13184L10.8936 9.48828L12.8652 0.658203H14.4893L11.7734 11.582H9.96777L7.25195 2.91895L4.7334 11.582H2.94336L0 0.658203H1.66895L3.85352 9.47266ZM17.3662 11.582H15.8799V4.26953H17.3662V11.582ZM26.2617 4.20801C27.885 4.20801 29.1445 5.4524 29.1445 7.06055V11.582H27.6582V7.09082C27.6581 6.30196 27.0506 5.66504 26.2617 5.66504C25.4882 5.66527 24.8819 6.3021 24.8818 7.09082V11.582H23.3799V7.09082C23.3798 6.30198 22.7727 5.66508 21.999 5.66504C21.2101 5.66504 20.6036 6.30196 20.6035 7.09082V11.582H19.1162V7.06055C19.1162 5.4524 20.3757 4.20801 21.999 4.20801C22.8485 4.20803 23.6224 4.57229 24.123 5.25488C24.6388 4.57243 25.4124 4.20813 26.2617 4.20801ZM35.7324 5.69531H32.835C32.4102 5.69531 32.0762 6.0293 32.0762 6.4541C32.0764 6.87873 32.4103 7.21191 32.835 7.21191H34.0332C35.3985 7.21199 36.3545 8.10794 36.3545 9.39746C36.3543 10.6716 35.4131 11.582 34.0479 11.582H31.0293V10.1406H34.124C34.5487 10.1406 34.8826 9.82204 34.8828 9.39746C34.8828 8.98783 34.5488 8.63867 34.124 8.63867H32.9102C31.5449 8.63859 30.6047 7.7131 30.6045 6.4541C30.6045 5.16458 31.5448 4.26961 32.9102 4.26953H35.7324V5.69531ZM40.9121 0C42.7871 0.000198978 44.2978 1.46592 44.2979 3.39551C44.2979 5.31609 42.7871 6.78203 40.9121 6.78223C39.0278 6.78223 37.5166 5.31622 37.5166 3.39551C37.5167 1.46579 39.0279 0 40.9121 0ZM40.9121 0.655273C39.3647 0.655273 38.1993 1.839 38.1992 3.39551C38.1992 4.9521 39.3646 6.12695 40.9121 6.12695C42.4503 6.12676 43.6064 4.95197 43.6064 3.39551C43.6064 1.83913 42.4502 0.655469 40.9121 0.655273ZM41.0752 1.71191C41.6394 1.71191 42.0671 2.12105 42.0674 2.66699C42.0674 3.11289 41.7948 3.46816 41.3945 3.5957L42.2314 5.08008H41.54L40.7656 3.6416H40.4297V5.08008H39.8193V1.71191H41.0752ZM16.623 0.901367C17.2753 0.901437 17.7909 1.40153 17.791 2.05371C17.791 2.70604 17.2754 3.22258 16.623 3.22266C15.9707 3.22266 15.4551 2.70608 15.4551 2.05371C15.4552 1.40148 15.9708 0.901367 16.623 0.901367ZM40.4297 3.08594H40.9209C41.2213 3.08591 41.4219 2.92185 41.4219 2.66699C41.4216 2.42149 41.2211 2.25784 40.9209 2.25781H40.4297V3.08594Z" fill="#808080"/>
</svg>
