<svg width="39" height="16" viewBox="0 0 39 16" fill="none" xmlns="http://www.w3.org/2000/svg">
<path fill-rule="evenodd" clip-rule="evenodd" d="M38.441 8.26482C38.441 5.53124 37.1169 3.37427 34.5862 3.37427C32.0448 3.37427 30.5072 5.53123 30.5072 8.24346C30.5072 11.4576 32.3225 13.0806 34.9279 13.0806C36.1986 13.0806 37.1596 12.7923 37.8857 12.3865V10.2509C37.1596 10.614 36.3267 10.8382 35.2696 10.8382C34.2338 10.8382 33.3155 10.4752 33.1981 9.21517H38.4196C38.4196 9.07635 38.441 8.52109 38.441 8.26482ZM33.166 7.2504C33.166 6.04378 33.9028 5.54191 34.5755 5.54191C35.2269 5.54191 35.921 6.04378 35.921 7.2504H33.166Z" fill="#808080"/>
<path fill-rule="evenodd" clip-rule="evenodd" d="M26.3855 3.37427C25.339 3.37427 24.6663 3.86546 24.2926 4.20716L24.1537 3.54512H21.8046V15.9957L24.4741 15.4298L24.4848 12.4079C24.8692 12.6855 25.4351 13.0806 26.3748 13.0806C28.2861 13.0806 30.0267 11.543 30.0267 8.15804C30.016 5.0614 28.2541 3.37427 26.3855 3.37427ZM25.7448 10.7314C25.1148 10.7314 24.741 10.5072 24.4848 10.2296L24.4741 6.26802C24.7517 5.95836 25.1361 5.7448 25.7448 5.7448C26.7165 5.7448 27.3892 6.83396 27.3892 8.23278C27.3892 9.66364 26.7271 10.7314 25.7448 10.7314Z" fill="#808080"/>
<path fill-rule="evenodd" clip-rule="evenodd" d="M18.1313 2.74426L20.8115 2.16765V0L18.1313 0.565937V2.74426Z" fill="#808080"/>
<path d="M20.8115 3.55566H18.1313V12.899H20.8115V3.55566Z" fill="#808080"/>
<path fill-rule="evenodd" clip-rule="evenodd" d="M15.2589 4.34586L15.0881 3.55569H12.7816V12.899H15.4511V6.5669C16.0811 5.74469 17.1489 5.89418 17.48 6.01164V3.55569C17.1383 3.42755 15.8889 3.19263 15.2589 4.34586Z" fill="#808080"/>
<path fill-rule="evenodd" clip-rule="evenodd" d="M9.91996 1.23877L7.31451 1.79403L7.30383 10.3472C7.30383 11.9275 8.4891 13.0914 10.0694 13.0914C10.9451 13.0914 11.5857 12.9312 11.9381 12.739V10.5714C11.5964 10.7102 9.90928 11.2014 9.90928 9.62104V5.83033H11.9381V3.55591H9.90928L9.91996 1.23877Z" fill="#808080"/>
<path fill-rule="evenodd" clip-rule="evenodd" d="M2.70155 6.26802C2.70155 5.85158 3.04325 5.69141 3.60918 5.69141C4.42072 5.69141 5.44581 5.937 6.25734 6.3748V3.86546C5.37106 3.51308 4.49546 3.37427 3.60918 3.37427C1.44154 3.37427 0 4.50614 0 6.39616C0 9.3433 4.05766 8.87347 4.05766 10.1442C4.05766 10.6353 3.63054 10.7955 3.03257 10.7955C2.14629 10.7955 1.01442 10.4325 0.117458 9.94127V12.4826C1.11052 12.9098 2.11426 13.0913 3.03257 13.0913C5.2536 13.0913 6.78057 11.9915 6.78057 10.0801C6.76989 6.89803 2.70155 7.46396 2.70155 6.26802Z" fill="#808080"/>
</svg>
