<svg width="20" height="20" viewBox="0 0 20 20" fill="none" xmlns="http://www.w3.org/2000/svg">
<path d="M19.3198 9.51027C19.5365 9.99371 19.674 10.5105 19.7303 11.0377C19.7845 11.5649 19.7574 12.0983 19.6449 12.6172C19.5344 13.136 19.3427 13.634 19.076 14.0925C18.901 14.3988 18.6947 14.6863 18.4571 14.951C18.2217 15.2135 17.9591 15.4511 17.6736 15.6595C17.3861 15.8678 17.0798 16.0429 16.7547 16.1867C16.4317 16.3284 16.0941 16.4367 15.7482 16.5076C15.5857 17.0118 15.344 17.489 15.0314 17.9183C14.7209 18.3475 14.3438 18.7247 13.9145 19.0352C13.4853 19.3477 13.0102 19.5895 12.5059 19.752C12.0016 19.9166 11.4744 19.9979 10.9431 19.9979C10.5909 20 10.2367 19.9625 9.89075 19.8916C9.54693 19.8187 9.20936 19.7082 8.88638 19.5644C8.56339 19.4207 8.25708 19.2415 7.9716 19.0331C7.68821 18.8247 7.42566 18.5851 7.19227 18.3204C6.67133 18.433 6.13789 18.4601 5.61069 18.4059C5.0835 18.3496 4.56673 18.2121 4.08121 17.9954C3.59777 17.7807 3.14976 17.489 2.75593 17.1327C2.3621 16.7764 2.02661 16.3596 1.76198 15.9012C1.58486 15.5949 1.43899 15.2719 1.32855 14.9364C1.21811 14.6009 1.14518 14.255 1.10767 13.9029C1.07016 13.5528 1.07225 13.1985 1.10976 12.8464C1.14726 12.4963 1.22436 12.1504 1.3348 11.8149C0.980563 11.4211 0.688835 10.9731 0.472123 10.4896C0.257495 10.0041 0.117883 9.48943 0.063705 8.96224C0.00744328 8.43505 0.036616 7.9016 0.147056 7.38275C0.257495 6.86389 0.449202 6.36587 0.715924 5.90744C0.890961 5.60112 1.09725 5.31148 1.33272 5.04892C1.56819 4.78637 1.83282 4.54882 2.1183 4.34044C2.40378 4.13207 2.71217 3.95495 3.03516 3.81325C3.36023 3.66947 3.6978 3.5632 4.0437 3.49235C4.20623 2.986 4.44795 2.5109 4.75843 2.08164C5.071 1.65238 5.44816 1.27522 5.87742 0.962657C6.30667 0.652175 6.78177 0.410458 7.28604 0.245841C7.79032 0.0833069 8.31751 -4.3819e-05 8.84887 0.00203995C9.20103 -4.3819e-05 9.55527 0.0353802 9.90117 0.108312C10.2471 0.181244 10.5846 0.2896 10.9076 0.43338C11.2306 0.579244 11.5369 0.756364 11.8224 0.964741C12.1079 1.1752 12.3704 1.41275 12.6038 1.67739C13.1227 1.56695 13.6561 1.53986 14.1833 1.59404C14.7105 1.64822 15.2252 1.78783 15.7107 2.00246C16.1941 2.21917 16.6422 2.50881 17.036 2.86514C17.4298 3.21938 17.7653 3.63405 18.0299 4.09456C18.2071 4.39879 18.3529 4.72177 18.4634 5.05934C18.5738 5.39483 18.6488 5.74074 18.6843 6.09289C18.7218 6.44505 18.7218 6.79929 18.6822 7.15145C18.6447 7.5036 18.5676 7.84951 18.4571 8.185C18.8134 8.57883 19.1031 9.02475 19.3198 9.51027ZM12.3767 18.4059C12.8309 18.2183 13.2435 17.9412 13.5915 17.5932C13.9395 17.2452 14.2167 16.8326 14.4042 16.3763C14.5917 15.922 14.6897 15.4344 14.6897 14.9427V10.2959C14.6883 10.2917 14.6869 10.2868 14.6855 10.2813C14.6841 10.2771 14.682 10.2729 14.6792 10.2688C14.6765 10.2646 14.673 10.2611 14.6688 10.2583C14.6647 10.2542 14.6605 10.2514 14.6563 10.25L12.9747 9.27897V14.8926C12.9747 14.9489 12.9664 15.0072 12.9518 15.0614C12.9372 15.1177 12.9164 15.1698 12.8872 15.2198C12.858 15.2698 12.8247 15.3156 12.783 15.3552C12.7425 15.3956 12.697 15.4306 12.6476 15.4594L8.6655 17.7578C8.63216 17.7787 8.5759 17.8078 8.54672 17.8245C8.71134 17.9641 8.89054 18.0871 9.07808 18.1954C9.26771 18.3038 9.46358 18.3955 9.66779 18.4705C9.872 18.5434 10.0825 18.5997 10.295 18.6372C10.5096 18.6747 10.7263 18.6934 10.9431 18.6934C11.4348 18.6934 11.9224 18.5955 12.3767 18.4059ZM2.89346 15.2511C3.14143 15.6782 3.46858 16.0491 3.85825 16.3492C4.24999 16.6493 4.69384 16.8681 5.16894 16.9952C5.64403 17.1223 6.13997 17.1556 6.62757 17.091C7.11518 17.0264 7.58402 16.8681 8.0112 16.6222L12.037 14.2988L12.0475 14.2883C12.0502 14.2856 12.0523 14.2814 12.0537 14.2758C12.0565 14.2717 12.0586 14.2675 12.06 14.2633V12.3046L7.20061 15.1156C7.1506 15.1448 7.09851 15.1656 7.04433 15.1823C6.98807 15.1969 6.9318 15.2031 6.87346 15.2031C6.8172 15.2031 6.76093 15.1969 6.70467 15.1823C6.65049 15.1656 6.59632 15.1448 6.54631 15.1156L2.56423 12.8151C2.5288 12.7943 2.47671 12.763 2.44754 12.7443C2.41003 12.9589 2.39127 13.1756 2.39127 13.3923C2.39127 13.609 2.41211 13.8258 2.44962 14.0404C2.48713 14.2529 2.54547 14.4634 2.6184 14.6676C2.69342 14.8718 2.78511 15.0677 2.89346 15.2552V15.2511ZM1.84741 6.56174C1.60153 6.98891 1.44316 7.45984 1.37856 7.94745C1.31397 8.43505 1.34731 8.9289 1.47442 9.40608C1.60153 9.88118 1.82032 10.325 2.12038 10.7168C2.42045 11.1064 2.79344 11.4336 3.21853 11.6795L7.24228 14.005C7.24645 14.0063 7.25131 14.0077 7.25687 14.0091H7.27146C7.27701 14.0091 7.28188 14.0077 7.28604 14.005C7.29021 14.0036 7.29438 14.0015 7.29855 13.9987L8.9864 13.0235L4.12705 10.2188C4.07912 10.1896 4.03328 10.1542 3.99161 10.1146C3.95123 10.0741 3.91621 10.0285 3.88742 9.97912C3.86033 9.92911 3.83741 9.87702 3.82282 9.82075C3.80824 9.76658 3.7999 9.71031 3.80198 9.65197V4.91973C3.59777 4.99475 3.39982 5.08643 3.21228 5.19479C3.02474 5.30523 2.84762 5.43025 2.68092 5.56987C2.5163 5.70948 2.3621 5.86368 2.22249 6.03038C2.08288 6.195 1.95993 6.3742 1.85158 6.56174H1.84741ZM15.669 9.77908C15.7191 9.80825 15.7649 9.84159 15.8066 9.88327C15.8462 9.92286 15.8816 9.9687 15.9108 10.0187C15.9378 10.0687 15.9608 10.1229 15.9754 10.1771C15.9879 10.2333 15.9962 10.2896 15.9941 10.3479V15.0802C16.663 14.8343 17.2465 14.403 17.6778 13.8362C18.1112 13.2694 18.3717 12.5922 18.4321 11.8837C18.4925 11.1752 18.3508 10.4626 18.0216 9.83117C17.6924 9.19979 17.1902 8.67468 16.5734 8.32044L12.5496 5.99496C12.5455 5.99357 12.5406 5.99218 12.5351 5.99079H12.5205C12.5163 5.99218 12.5114 5.99357 12.5059 5.99496C12.5017 5.99635 12.4975 5.99843 12.4934 6.00121L10.8139 6.97224L15.6732 9.77908H15.669ZM17.3465 7.25772H17.3444V7.2598L17.3465 7.25772ZM17.3444 7.25564C17.4652 6.55549 17.384 5.83451 17.1089 5.17812C16.836 4.52173 16.3796 3.95703 15.7962 3.54861C15.2127 3.14228 14.5251 2.9089 13.8145 2.87764C13.1018 2.84847 12.3975 3.02142 11.7807 3.37566L7.75698 5.69906C7.75281 5.70184 7.74933 5.70531 7.74656 5.70948L7.73822 5.72198C7.73683 5.72615 7.73544 5.73101 7.73405 5.73657C7.73266 5.74074 7.73197 5.7456 7.73197 5.75115V7.69323L12.5913 4.88639C12.6413 4.85722 12.6955 4.83638 12.7497 4.81971C12.8059 4.80512 12.8622 4.79887 12.9185 4.79887C12.9768 4.79887 13.0331 4.80512 13.0893 4.81971C13.1435 4.83638 13.1956 4.85722 13.2456 4.88639L17.2277 7.18687C17.2631 7.20771 17.3152 7.23688 17.3444 7.25564ZM6.81511 5.10519C6.81511 5.04892 6.82345 4.99266 6.83803 4.9364C6.85262 4.88222 6.87346 4.82805 6.90263 4.77804C6.9318 4.73011 6.96514 4.68427 7.00682 4.64259C7.04641 4.603 7.09225 4.56757 7.14226 4.54049L11.1243 2.24209C11.1619 2.21917 11.2139 2.19 11.2431 2.17541C10.6972 1.71906 10.0304 1.42734 9.32397 1.33773C8.61757 1.24605 7.90075 1.35857 7.25687 1.66072C6.6109 1.96287 6.06496 2.44422 5.68363 3.04434C5.3023 3.64655 5.10017 4.34253 5.10017 5.05518V9.70198C5.10156 9.70753 5.10295 9.7124 5.10434 9.71657C5.10573 9.72073 5.10781 9.7249 5.11059 9.72907C5.11337 9.73323 5.11684 9.7374 5.12101 9.74157C5.12379 9.74435 5.12795 9.74713 5.13351 9.7499L6.81511 10.7209V5.10519ZM7.7278 11.246L9.89284 12.4963L12.0579 11.246V8.74761L9.89492 7.49735L7.72989 8.74761L7.7278 11.246Z" fill="#808080"/>
</svg>
