<svg width="48" height="12" viewBox="0 0 48 12" fill="none" xmlns="http://www.w3.org/2000/svg">
<path d="M6.48863 3.89019L4.34797 9.20816H6.92206L7.82332 11.7822H0.0179443L4.86738 0.194905H8.24242L13.0761 11.7822H9.64159L6.48863 3.89019ZM42.0129 6.53664L42.028 6.47789C42.0573 6.36255 42.0932 6.25867 42.1326 6.16911C42.2759 5.85031 42.4636 5.61031 42.6921 5.45628C42.9221 5.30153 43.1785 5.22273 43.4536 5.22273C43.6944 5.22273 43.9265 5.28434 44.1443 5.40398C44.3621 5.52434 44.5476 5.71276 44.6966 5.96422C44.7819 6.10965 44.8421 6.28374 44.8743 6.48147L44.8843 6.53664H42.0129ZM47.1067 5.43192C46.9942 5.17759 46.8616 4.94117 46.7105 4.72553C46.5593 4.50917 46.3881 4.31288 46.1997 4.13735C45.8221 3.78774 45.3894 3.51837 44.913 3.33783C44.4373 3.15729 43.9351 3.06559 43.42 3.06559C42.6642 3.06559 41.9592 3.24613 41.3237 3.60219C40.689 3.95753 40.1732 4.46834 39.7899 5.12028C39.4066 5.7715 39.2117 6.5524 39.2117 7.44076C39.2117 8.14285 39.34 8.77902 39.5914 9.33138C39.8429 9.88446 40.1954 10.3559 40.6388 10.7334C41.0823 11.1117 41.6024 11.404 42.1834 11.601C42.7652 11.7987 43.4056 11.899 44.0877 11.899C44.5813 11.899 45.072 11.8439 45.5456 11.7335C46.0084 11.6261 46.4562 11.4634 46.8774 11.2507V8.98392C46.4454 9.18022 46.0285 9.3364 45.6359 9.44744C45.2218 9.56494 44.7912 9.62511 44.3542 9.62511C43.8828 9.62511 43.4637 9.54488 43.1083 9.38726C42.7516 9.22822 42.4628 8.98392 42.2529 8.6601C42.1892 8.56195 42.1333 8.44947 42.086 8.32553L42.0616 8.26034H47.3811C47.3911 8.11347 47.404 7.95228 47.4197 7.77031C47.4362 7.58404 47.4448 7.39347 47.4448 7.20649C47.4448 6.53807 47.3309 5.94129 47.1067 5.43192ZM35.5222 8.58344C35.4341 8.73102 35.3316 8.86141 35.2156 8.97532C35.0995 9.0878 34.9698 9.18308 34.828 9.26046C34.5436 9.41305 34.2384 9.49114 33.9203 9.49114C33.7354 9.49114 33.5463 9.46679 33.3579 9.41879L33.3221 9.40947V5.5838L33.3586 5.5752C33.5606 5.52935 33.777 5.50643 34.0034 5.50643C34.3215 5.50643 34.6181 5.5752 34.8853 5.71204C35.1539 5.84888 35.3732 6.0638 35.5394 6.34894C35.7034 6.63335 35.7873 7.00087 35.7873 7.44076C35.7873 7.90356 35.6977 8.28828 35.5222 8.58344ZM38.2582 5.48207C38.0225 4.94046 37.6979 4.48553 37.2932 4.13019C36.8884 3.77485 36.4363 3.50834 35.9492 3.33855C35.4613 3.16804 34.9584 3.08207 34.4547 3.08207C34.07 3.08207 33.7089 3.12219 33.3808 3.20028L33.3221 3.21461V0.0673828H30.4299V11.232C30.9493 11.4677 31.493 11.6447 32.044 11.7579C32.6064 11.874 33.2261 11.9327 33.8873 11.9327C34.4791 11.9327 35.0665 11.8353 35.6325 11.6433C36.197 11.4513 36.7107 11.1625 37.1606 10.7843C37.6091 10.4067 37.968 9.93174 38.2245 9.37365C38.4817 8.81485 38.6128 8.15359 38.6128 7.40708C38.6128 6.67204 38.4932 6.02368 38.2582 5.48207ZM26.7726 8.59634C26.7009 8.74392 26.6185 8.87431 26.5247 8.98535C26.4308 9.09568 26.327 9.18667 26.2123 9.25902C25.9831 9.40159 25.7273 9.47467 25.4522 9.47467C25.1778 9.47467 24.9221 9.40159 24.6928 9.25902C24.4628 9.11502 24.2751 8.89293 24.1326 8.59634C23.9907 8.30261 23.9198 7.92505 23.9198 7.47371C23.9198 7.01234 23.9907 6.63192 24.1326 6.3432C24.2751 6.05234 24.4628 5.8324 24.6928 5.68911C24.9221 5.54655 25.1778 5.47347 25.4522 5.47347C25.7273 5.47347 25.9824 5.54655 26.2123 5.68911C26.4416 5.8324 26.63 6.05234 26.7726 6.3432C26.9137 6.63264 26.9861 7.01305 26.9861 7.47371C26.9861 7.92434 26.9137 8.30189 26.7726 8.59634ZM29.217 5.04505C28.823 4.3881 28.2907 3.88374 27.6337 3.54416C27.3042 3.37437 26.9567 3.24685 26.5927 3.16088C26.2281 3.07562 25.8477 3.03192 25.4522 3.03192C24.6634 3.03192 23.9291 3.20458 23.2714 3.54416C22.6145 3.88374 22.0793 4.3881 21.6796 5.04577C21.2798 5.70201 21.0778 6.51873 21.0778 7.47371C21.0778 8.4287 21.2798 9.24613 21.6796 9.90237C22.0793 10.5593 22.6152 11.0673 23.2714 11.4126C23.9291 11.7579 24.6627 11.9327 25.4522 11.9327C26.231 11.9327 26.9617 11.7579 27.6251 11.4126C28.2871 11.0673 28.823 10.5593 29.217 9.90308C29.611 9.24613 29.8109 8.4287 29.8109 7.47371C29.8109 6.51873 29.611 5.70201 29.217 5.04505ZM17.5831 9.39443L17.5465 9.40374C17.3431 9.45103 17.1325 9.47467 16.9175 9.47467C16.6109 9.47467 16.3172 9.40231 16.0449 9.26046C15.7705 9.11789 15.5477 8.89795 15.3822 8.6078C15.2182 8.31765 15.1344 7.94225 15.1344 7.49091C15.1344 7.02882 15.2146 6.64482 15.3736 6.34965C15.5334 6.05234 15.7569 5.8324 16.0378 5.69556C16.315 5.55873 16.6281 5.48995 16.9684 5.48995C17.1654 5.48995 17.3603 5.51288 17.5465 5.55801L17.5831 5.56732V9.39443ZM17.5831 0.0673828V3.15514L17.5265 3.1444C17.2542 3.0921 16.9705 3.06559 16.6847 3.06559C16.1366 3.06559 15.5907 3.15944 15.0649 3.34643C14.539 3.5327 14.0648 3.81855 13.6535 4.1961C13.2437 4.57437 12.907 5.04362 12.6556 5.59168C12.4034 6.13831 12.2759 6.78308 12.2759 7.50738C12.2759 8.27538 12.4141 8.94738 12.6878 9.50547C12.9615 10.0643 13.3254 10.5278 13.7682 10.8839C14.2123 11.2399 14.7174 11.5064 15.2712 11.6762C15.8264 11.846 16.3917 11.9327 16.9512 11.9327C17.6339 11.9327 18.2651 11.8711 18.8275 11.75C19.3784 11.6311 19.9272 11.4513 20.4581 11.2156V0.0673828H17.5831Z" fill="#808080"/>
</svg>
