<svg width="54" height="16" viewBox="0 0 54 16" fill="none" xmlns="http://www.w3.org/2000/svg">
<path d="M0 0V15.9978H11.0175V0H0ZM9.424 14.3873H1.5878V1.61166H9.424V14.3873Z" fill="#808080"/>
<path d="M17.5831 5.57778H17.5677C16.6888 4.14619 15.8014 2.88164 14.9065 1.6087H14.2237V7.17697H14.9773V3.18348H14.9849C15.8725 4.62348 16.7593 5.89642 17.6545 7.17697H18.3373V1.6087H17.5831V5.57778ZM23.0234 7.17697L21.2726 1.6087H20.4881L18.5882 7.17697H19.4044L19.8836 5.65751H21.5395L21.9715 7.17697H23.0234ZM20.1266 4.97303C20.3465 4.2411 20.5665 3.56612 20.7625 2.70592H20.7785C20.9985 3.56585 21.1945 4.2411 21.3987 4.97303H20.1266ZM23.9102 7.17697H24.8523V2.35663H26.2969V1.6087H22.4661V2.35663H23.9105L23.9102 7.17697ZM27.5368 1.6087H26.6028V7.17697H27.5368V1.6087ZM30.442 7.27188C31.8787 7.27188 32.7736 5.97561 32.7736 4.31297C32.7736 2.75392 31.7841 1.5127 30.442 1.5127C29.0993 1.5127 28.1098 2.75392 28.1098 4.31297C28.1098 5.97588 29.0047 7.27188 30.442 7.27188ZM30.442 2.30863C31.3762 2.30863 31.7684 3.2868 31.7684 4.31324C31.7684 5.379 31.4234 6.47676 30.442 6.47676C29.4606 6.47676 29.1153 5.37927 29.1153 4.31324C29.1153 3.2868 29.5077 2.30863 30.442 2.30863ZM34.0995 3.18348H34.1082C34.9949 4.62348 35.8817 5.89642 36.7769 7.17697H37.4597V1.6087H36.7061V5.57778H36.6904C35.8115 4.14619 34.9242 2.88164 34.0292 1.6087H33.3464V7.17697H34.0995V3.18348ZM39.0055 5.65751H40.6625L41.0942 7.17697H42.1458L40.3956 1.6087H39.6105L37.7103 7.17697H38.5277L39.0055 5.65751ZM39.8858 2.70592H39.9012C40.1206 3.56585 40.317 4.2411 40.5217 4.97303H39.249C39.4695 4.2411 39.6886 3.56585 39.8858 2.70592ZM45.2151 6.42876H43.3551V1.6087H42.4206V7.17697H45.2154L45.2151 6.42876ZM16.8151 13.5455C16.6185 13.6491 16.407 13.6811 16.1559 13.6811C15.3475 13.6811 14.5624 12.9012 14.5624 11.581C14.5624 10.3165 15.2452 9.5127 16.2503 9.5127C16.6115 9.5127 17.0039 9.64775 17.255 9.80666L17.5609 9.14686C17.2471 8.90768 16.7368 8.71703 16.2264 8.71703C14.5781 8.71703 13.5574 10.0456 13.5574 11.5648C13.5574 13.2035 14.5781 14.4765 16.1947 14.4765C16.7286 14.4765 17.2547 14.3341 17.7575 14.1343V11.8349H16.8151V13.5455ZM19.5544 11.8354H21.0934V11.088H19.5544V9.5607H21.1248V8.81304H18.6128V14.3813H21.4074V13.6328H19.5544V11.8354ZM24.0295 8.71731C22.6869 8.71731 21.6981 9.95825 21.6981 11.5176C21.6981 13.1799 22.5928 14.4768 24.0295 14.4768C25.466 14.4768 26.3606 13.1799 26.3606 11.5176C26.3606 9.95825 25.3716 8.71731 24.0295 8.71731ZM24.0295 13.6811C23.0478 13.6811 22.7026 12.5833 22.7026 11.5173C22.7026 10.4909 23.095 9.51242 24.0295 9.51242C24.9635 9.51242 25.3559 10.4906 25.3559 11.5173C25.3559 12.5833 25.0109 13.6811 24.0295 13.6811ZM29.9406 13.5455C29.7445 13.6491 29.5322 13.6811 29.281 13.6811C28.4724 13.6811 27.6873 12.9012 27.6873 11.581C27.6873 10.3165 28.3704 9.5127 29.3757 9.5127C29.7366 9.5127 30.1293 9.64775 30.3796 9.80666L30.6861 9.14686C30.3723 8.90768 29.8616 8.71703 29.351 8.71703C27.7033 8.71703 26.6828 10.0456 26.6828 11.5648C26.6828 13.2035 27.7033 14.4765 29.3206 14.4765C29.8538 14.4765 30.3796 14.3341 30.8827 14.1343V11.8349H29.9406V13.5455ZM34.9176 10.4201C34.9176 9.33751 34.2657 8.81304 33.2143 8.81304H31.7461V14.3813H32.688V12.2812H33.1118L33.9989 14.3813H35.0741L33.968 12.0741C34.5716 11.7481 34.9176 11.088 34.9176 10.4201ZM33.0806 11.565C32.986 11.5732 32.7658 11.5813 32.6877 11.5892V9.56097H33.1045C33.661 9.56097 33.9747 9.88639 33.9747 10.4594C33.9747 11.2068 33.5281 11.5414 33.0806 11.565ZM36.9901 8.81304L35.0898 14.3813H35.9058L36.385 12.8616H38.0414L38.4743 14.3813H39.5254L37.7746 8.81304H36.9901ZM36.6291 12.1782C36.8488 11.4457 37.0684 10.7696 37.2648 9.9108H37.2808C37.5002 10.7696 37.6965 11.4457 37.901 12.1782H36.6291ZM46.4181 10.9527H44.4631V8.81304H43.5289V14.3813H44.4631V11.7001H46.4181V14.3813H47.3597V8.82822H46.4181V10.9527ZM48.2622 14.3808H49.1962V8.81304H48.2622V14.3808ZM52.4935 13.6811C51.5829 13.6811 50.8132 12.9012 50.8132 11.581C50.8132 10.3165 51.5126 9.5127 52.4699 9.5127C52.8311 9.5127 53.2081 9.67948 53.4359 9.82266L53.7339 9.14714C53.412 8.92422 52.9572 8.71731 52.4702 8.71731C50.8295 8.71731 49.8166 10.0458 49.8166 11.565C49.8166 13.2038 50.8374 14.4768 52.455 14.4768C52.91 14.4768 53.4123 14.2937 53.6949 14.0952L53.4362 13.4029C53.1926 13.5618 52.8547 13.6811 52.4935 13.6811ZM41.2913 8.81304H39.8242V14.3813H40.7663V12.2812H41.1896C42.3129 12.2812 42.9952 11.3578 42.9952 10.4201C42.9949 9.33751 42.3441 8.81304 41.2913 8.81304ZM41.1582 11.565C41.0641 11.5724 40.8368 11.58 40.7661 11.5873V9.5607H41.1894C41.7393 9.5607 42.0534 9.88612 42.0534 10.4591C42.0531 11.2068 41.6056 11.5414 41.1582 11.565Z" fill="#808080"/>
</svg>
