<svg width="70" height="12" viewBox="0 0 70 12" fill="none" xmlns="http://www.w3.org/2000/svg">
<path d="M5.93088 9.84818C3.79718 9.84818 2.31544 8.23225 2.31544 5.99893C2.31544 3.76562 3.79937 2.14968 5.89886 2.14968C7.43262 2.14968 8.61441 3.04971 8.96456 4.14919H11.348C10.932 1.74971 8.68233 0 5.86506 0C2.48161 0 0 2.68353 0 5.99893C0 9.31438 2.41538 11.9979 5.88292 11.9979C8.74856 11.9979 10.9481 10.282 11.3982 7.84867H9.03256C8.63259 8.96456 7.46683 9.84818 5.93311 9.84818H5.93124H5.93088Z" fill="#808080"/>
<path d="M17.2412 3.33311C16.1413 3.33311 15.2755 3.81704 14.7915 4.48284V0.16748H12.6259V11.8315H14.7915V7.34807C14.7915 6.04821 15.4915 5.19848 16.6252 5.19848C17.6591 5.19848 18.2408 5.99847 18.2408 7.11395V11.8293H20.4065V6.76412C20.4065 4.69843 19.1408 3.33052 17.2412 3.33052V3.33311Z" fill="#808080"/>
<path d="M29.2896 6.39954C29.2896 4.50016 27.9897 3.33398 25.5902 3.33398C23.6245 3.33398 22.0566 4.43392 21.7908 6.03355H23.9746C24.1405 5.48376 24.7405 5.04953 25.5746 5.04953C26.6585 5.04953 27.1745 5.61531 27.1745 6.59923V6.64907L25.0587 6.83309C22.8432 7.01711 21.609 7.917 21.609 9.61656C21.609 11.0503 22.8428 12 24.5586 12C25.7084 12 26.8244 11.5499 27.2923 10.8001C27.2923 11.1659 27.3262 11.5001 27.3924 11.8339H29.4082C29.3242 11.3001 29.2922 10.6842 29.2922 9.96825V6.40255L29.29 6.39854L29.2896 6.39954ZM27.1719 8.38356C27.1719 9.36749 26.4382 10.3671 24.9564 10.3671C24.1564 10.3671 23.7227 9.9831 23.7227 9.41732C23.7227 8.8013 24.1386 8.41745 25.0724 8.33337L27.1719 8.14935V8.38356Z" fill="#808080"/>
<path d="M33.8415 0.80127H31.6758V3.5007H29.9421V5.25054H31.6758V9.34981C31.6758 10.9337 32.4918 11.8334 34.2416 11.8334H35.9753V10.0338H34.8753C34.1415 10.0338 33.8415 9.78404 33.8415 9.10007V5.25082H35.9753V3.50111H33.8415V0.801634V0.80127Z" fill="#808080"/>
<path d="M46.7344 5.59937H43.0007V7.46496H46.1842C45.9664 9.01475 44.5163 9.94857 42.9008 9.94857C40.5671 9.94857 39.2014 8.23261 39.2014 5.9993C39.2014 3.76603 40.7351 2.1337 42.8327 2.1337C44.2665 2.1337 45.4345 2.96749 45.7341 3.89944H48.1158C47.6656 1.58391 45.5322 0 42.8004 0C39.4348 0 36.9353 2.71546 36.9353 6.01492C36.9353 9.31438 39.2351 11.9979 42.6685 11.9979C44.2361 11.9979 45.6519 11.2979 46.2839 10.3481V11.8321H48.2176V7.08289C48.2176 6.13312 47.6856 5.59896 46.734 5.59896L46.7344 5.59937Z" fill="#808080"/>
<path d="M55.1042 0.167845H49.939V11.8319H52.1366V7.44856H55.1199C57.422 7.44856 59.0534 6.09877 59.0534 3.83307C59.0534 1.56741 57.422 0.16748 55.1042 0.16748V0.167845ZM54.9539 5.51696H52.1366V2.16735H54.9539C56.0887 2.16735 56.8216 2.81721 56.8216 3.83307C56.8216 4.84902 56.0887 5.51669 54.9539 5.51669V5.51696Z" fill="#808080"/>
<path d="M59.6005 0.16748V2.16699H63.5842V11.8315H65.7821V2.16699H69.782V0.16748H59.5996H59.6013H59.6005Z" fill="#808080"/>
</svg>
