<svg width="45" height="16" viewBox="0 0 45 16" fill="none" xmlns="http://www.w3.org/2000/svg">
<path d="M0 0.0134277V12.3424L1.59284 12.3485V6.48012H5.44118V4.9269H1.59284V1.56664H6.60237V0.0134277H0ZM9.47799 2.51549C10.0555 2.51549 10.5176 2.05013 10.5176 1.48203C10.5176 0.913929 10.0495 0.448569 9.47799 0.448569C8.90044 0.448569 8.43839 0.913929 8.43839 1.48203C8.43839 2.05013 8.90652 2.51549 9.47799 2.51549ZM8.66941 4.06871V12.3424H10.2623V4.06871H8.66941Z" fill="#808080"/>
<path fill-rule="evenodd" clip-rule="evenodd" d="M16.1776 3.8269C14.0558 3.8269 12.5785 5.60978 12.5785 7.72505C12.5785 9.84032 14.0558 11.6232 16.1776 11.6232C17.1503 11.6232 17.9467 11.2485 18.5304 10.6441V11.738C18.5304 13.1099 17.4482 14.2522 16.0317 14.2522C15.521 14.2522 15.0164 14.0588 14.6151 13.7808L13.8126 15.1587C14.451 15.5697 15.2109 15.8054 16.0256 15.8054C18.2872 15.8054 20.1171 13.9863 20.1171 11.738V4.06865H18.5304V4.80597C17.9467 4.20161 17.1503 3.8269 16.1776 3.8269ZM14.1774 7.72505C14.1774 6.41358 15.1866 5.38012 16.3539 5.38012C17.5212 5.38012 18.5304 6.41358 18.5304 7.72505C18.5304 9.03652 17.5212 10.07 16.3539 10.07C15.1866 10.07 14.1774 9.03652 14.1774 7.72505Z" fill="#808080"/>
<path d="M25.8745 5.38012C24.9322 5.38012 24.1662 6.17788 24.1662 7.11464V12.3424H22.5734V4.06865H24.1662V4.8241C24.6343 4.22578 25.3213 3.8269 26.2211 3.8269C27.3397 3.8269 28.1969 4.37687 28.6955 5.22298C29.2487 4.40709 30.1485 3.8269 31.2367 3.8269C33.0545 3.8269 34.1853 5.28342 34.1913 7.08442V12.3424H32.5985V7.1086C32.5985 6.17183 31.8325 5.37407 30.8902 5.37407C29.9478 5.37407 29.1818 6.17183 29.1818 7.1086V12.3424H27.589V7.1086C27.5829 6.17183 26.8169 5.38012 25.8745 5.38012Z" fill="#808080"/>
<path fill-rule="evenodd" clip-rule="evenodd" d="M42.6906 5.00541C41.9792 4.27413 41.0065 3.8269 39.8818 3.8269C37.5108 3.8269 35.8207 5.82735 35.8207 8.20854C35.8207 10.5897 37.5047 12.5902 39.8818 12.5902C41.0065 12.5902 41.9792 12.1369 42.6906 11.4117V12.3424H44.2834V4.06865H42.6906V5.00541ZM37.4196 8.20854C37.4196 6.63115 38.6355 5.38012 40.0581 5.38012C41.4746 5.38012 42.6966 6.62511 42.6966 8.20854C42.6966 9.78593 41.4807 11.037 40.0581 11.037C38.6355 11.0309 37.4196 9.78593 37.4196 8.20854Z" fill="#808080"/>
</svg>
